<svg xmlns="http://www.w3.org/2000/svg" xmlns:svgjs="http://svgjs.com/svgjs" xmlns:xlink="http://www.w3.org/1999/xlink" width="288" height="288"><svg xmlns="http://www.w3.org/2000/svg" width="288" height="288" fill="none" viewBox="0 0 36 36"><path fill="#fff" fill-rule="evenodd" d="M9.2994 5.72975C6.92268 8.1491 4.961 12.4408 3.90773 15.7861C3.57601 16.8397 2.453 17.4249 1.39942 17.0932C0.345837 16.7615 -0.239351 15.6384 0.0923665 14.5849C1.20951 11.0367 3.405 6.02205 6.44595 2.92657C7.97821 1.36683 9.95317 0.0648184 12.3102 0.00229239C14.7322 -0.0619574 16.9944 1.19121 19.0343 3.53083C20.2743 4.95296 21.1158 6.3605 21.4058 7.79072C21.7155 9.31828 21.3563 10.6764 20.5743 11.8024C19.8462 12.8509 18.7934 13.6428 17.7636 14.2717C16.7197 14.9092 15.5276 15.4792 14.4005 16.0078C14.3138 16.0484 14.2277 16.0888 14.1419 16.129C11.8575 17.1996 9.90219 18.116 8.65431 19.2984C8.05483 19.8664 7.72554 20.4052 7.5895 20.9484C7.4564 21.4799 7.45751 22.217 7.87099 23.2803C8.69945 25.4109 10.7734 27.4487 13.675 29.0556C16.5419 30.6434 19.9774 31.6724 23.1388 31.9341C26.3675 32.2015 28.9458 31.645 30.423 30.505C31.1203 29.9669 31.5994 29.2836 31.8343 28.3958C32.0759 27.4826 32.0905 26.2275 31.6258 24.5345C30.7567 21.368 28.8358 19.8579 26.6226 19.2348C24.2817 18.5758 21.4958 18.8953 19.2001 19.757C18.0643 20.1834 17.1375 20.7102 16.5036 21.2275C16.1885 21.4846 15.9763 21.7145 15.8454 21.8981C15.7905 21.9752 15.7555 22.0361 15.7333 22.0808C15.7664 22.1106 15.8154 22.1504 15.8867 22.2007C16.3511 22.5285 17.3766 22.9568 19.3207 23.243C20.4135 23.4039 21.169 24.4201 21.0081 25.5129C20.8472 26.6057 19.831 27.3612 18.7382 27.2003C16.5501 26.8783 14.7974 26.3277 13.5802 25.4687C12.2585 24.5359 11.4662 23.1267 11.7578 21.4761C12.0069 20.0658 12.9837 18.937 13.9748 18.1283C15.0166 17.2782 16.3476 16.5553 17.7944 16.0122C20.6638 14.9351 24.3422 14.4373 27.7065 15.3845C31.1985 16.3675 34.2236 18.8871 35.4832 23.4758C36.0828 25.6605 36.1678 27.6557 35.7012 29.419C35.2279 31.2078 34.22 32.6273 32.8669 33.6716C30.2432 35.6964 26.4668 36.2234 22.8087 35.9205C19.0832 35.612 15.0996 34.4171 11.7371 32.5549C8.40918 30.7119 5.44315 28.0738 4.14293 24.73C3.49208 23.0562 3.33667 21.4648 3.70932 19.9767C4.07903 18.5004 4.91777 17.3284 5.90307 16.3948C7.64226 14.7469 10.1606 13.5722 12.2273 12.6081C12.3885 12.533 12.5469 12.4591 12.702 12.3863C13.8443 11.8505 14.8475 11.3656 15.6789 10.8579C16.5244 10.3415 17.027 9.89787 17.2889 9.52081C17.4969 9.22118 17.5622 8.96365 17.4856 8.58567C17.3892 8.11034 17.0333 7.32247 16.0194 6.15952C14.453 4.36301 13.2426 3.97897 12.4163 4.00089C11.525 4.02453 10.476 4.53207 9.2994 5.72975ZM15.6709 22.012C15.6721 22.0121 15.6774 22.0183 15.6832 22.0305C15.6727 22.0179 15.6697 22.0119 15.6709 22.012Z" class="color111 svgShape" clip-rule="evenodd"/></svg></svg>